<svg width="40" height="40" viewBox="0 0 40 40" xmlns="http://www.w3.org/2000/svg">
  <defs>
    <radialGradient id="logoGradient" cx="0.5" cy="0.3" r="0.8">
      <stop offset="0%" style="stop-color:#4FC3F7;stop-opacity:1" />
      <stop offset="50%" style="stop-color:#2196F3;stop-opacity:1" />
      <stop offset="100%" style="stop-color:#1565C0;stop-opacity:1" />
    </radialGradient>
    <linearGradient id="waveGradient" x1="0%" y1="0%" x2="100%" y2="100%">
      <stop offset="0%" style="stop-color:#64B5F6;stop-opacity:0.8" />
      <stop offset="100%" style="stop-color:#1976D2;stop-opacity:0.9" />
    </linearGradient>
  </defs>
  
  <!-- Background Circle -->
  <circle cx="20" cy="20" r="19" fill="url(#logoGradient)" stroke="#0D47A1" stroke-width="1"/>
  
  <!-- Wave Pattern -->
  <path d="M 5 25 Q 10 20 15 25 T 25 25 Q 30 20 35 25 L 35 35 Q 20 30 5 35 Z" fill="url(#waveGradient)" opacity="0.7"/>
  <path d="M 3 28 Q 8 23 13 28 T 23 28 Q 28 23 33 28 L 33 38 Q 18 33 3 38 Z" fill="url(#waveGradient)" opacity="0.5"/>
  
  <!-- Diver Silhouette -->
  <g transform="translate(20,20) scale(0.8)">
    <!-- Diver Body -->
    <ellipse cx="0" cy="-2" rx="2" ry="4" fill="#0D47A1" opacity="0.9"/>
    
    <!-- Diver Head -->
    <circle cx="0" cy="-7" r="2.5" fill="#0D47A1" opacity="0.9"/>
    
    <!-- Diving Gear/Tank -->
    <rect x="-1.5" y="-4" width="1" height="6" fill="#1565C0" rx="0.5"/>
    
    <!-- Arms -->
    <ellipse cx="-2.5" cy="-1" rx="1" ry="2.5" fill="#0D47A1" opacity="0.8" transform="rotate(-20)"/>
    <ellipse cx="2.5" cy="-1" rx="1" ry="2.5" fill="#0D47A1" opacity="0.8" transform="rotate(20)"/>
    
    <!-- Legs -->
    <ellipse cx="-1" cy="3" rx="0.8" ry="3" fill="#0D47A1" opacity="0.8"/>
    <ellipse cx="1" cy="3" rx="0.8" ry="3" fill="#0D47A1" opacity="0.8"/>
    
    <!-- Fins -->
    <ellipse cx="-1" cy="7" rx="1.5" ry="1" fill="#1976D2" opacity="0.7"/>
    <ellipse cx="1" cy="7" rx="1.5" ry="1" fill="#1976D2" opacity="0.7"/>
  </g>
  
  <!-- DNA Helix Accent -->
  <g transform="translate(30,10) scale(0.3)" opacity="0.6">
    <path d="M 0 0 Q 5 5 0 10 Q -5 15 0 20" stroke="#00E676" stroke-width="2" fill="none"/>
    <path d="M 0 0 Q -5 5 0 10 Q 5 15 0 20" stroke="#00E676" stroke-width="2" fill="none"/>
    <circle cx="0" cy="5" r="1" fill="#00E676"/>
    <circle cx="0" cy="15" r="1" fill="#00E676"/>
  </g>
</svg>